<svg width="1em" height="1em" viewBox="0 0 24 24" fill="none" xmlns="http://www.w3.org/2000/svg">
<path d="M20.49 3.50999C19.93 2.94999 18.34 2.53999 16.33 2.53999C13.25 2.53999 9.18001 3.49999 6.35001 6.32999C1.66001 11.03 2.10001 19.07 3.51001 20.49C4.07001 21.05 5.66001 21.46 7.67001 21.46C10.75 21.46 14.82 20.5 17.65 17.67C22.34 12.97 21.9 4.92999 20.49 3.50999ZM7.76001 7.75999C10.4 5.11999 14.11 4.63999 15.79 4.56999C13.74 5.50999 11.33 7.01999 9.18001 9.17999C7.26814 11.1062 5.70496 13.3494 4.56001 15.81C4.66001 13.33 5.44001 10.07 7.76001 7.75999ZM16.24 16.24C13.6 18.88 9.89001 19.36 8.21001 19.43C10.26 18.49 12.67 16.98 14.82 14.82C16.98 12.66 18.49 10.24 19.44 8.18999C19.34 10.67 18.56 13.93 16.24 16.24Z" fill="currentColor"/>
</svg>
