<svg width="1em" height="1em" viewBox="0 0 48 48" fill="none" xmlns="http://www.w3.org/2000/svg">
<path fill-rule="evenodd" clip-rule="evenodd" d="M9.60078 11.9997C6.94981 11.9997 4.80078 14.1487 4.80078 16.7997V35.9997C4.80078 38.6507 6.94981 40.7997 9.60078 40.7997H38.4008C41.0517 40.7997 43.2008 38.6507 43.2008 35.9997V16.7997C43.2008 14.1487 41.0517 11.9997 38.4008 11.9997H34.5949C33.9584 11.9997 33.3479 11.7469 32.8978 11.2968L30.2067 8.60559C29.3065 7.70542 28.0856 7.19971 26.8126 7.19971H21.189C19.916 7.19971 18.6951 7.70542 17.7949 8.60559L15.1037 11.2968C14.6536 11.7469 14.0432 11.9997 13.4067 11.9997H9.60078ZM24.0008 33.5997C27.9772 33.5997 31.2008 30.3762 31.2008 26.3997C31.2008 22.4233 27.9772 19.1997 24.0008 19.1997C20.0243 19.1997 16.8008 22.4233 16.8008 26.3997C16.8008 30.3762 20.0243 33.5997 24.0008 33.5997Z" fill="currentColor"/>
</svg>
