<svg width="1em" height="1em" viewBox="0 0 16 16" fill="none" xmlns="http://www.w3.org/2000/svg">
  <path d="M13.3744 8.4315L13.7195 7.14359C14.1223 5.64021 14.3237 4.88851 14.1721 4.238C14.0523 3.72436 13.7829 3.25777 13.398 2.89723C12.9105 2.44061 12.1588 2.2392 10.6554 1.83637C9.15199 1.43354 8.40029 1.23212 7.74978 1.3838C7.23614 1.50356 6.76955 1.77295 6.40901 2.15789C6.01806 2.5753 5.81419 3.18636 5.51081 4.29706C5.45985 4.4836 5.40609 4.68423 5.34817 4.90041L5.34815 4.9005L5.00305 6.1884C4.60022 7.69178 4.39881 8.44348 4.55049 9.09399C4.67025 9.60763 4.93964 10.0742 5.32458 10.4348C5.8121 10.8914 6.5638 11.0928 8.06718 11.4956C9.42225 11.8587 10.1666 12.0582 10.7767 11.9829C10.8434 11.9747 10.9086 11.9632 10.9728 11.9482C11.4864 11.8284 11.953 11.559 12.3135 11.1741C12.7702 10.6866 12.9716 9.93488 13.3744 8.4315Z" fill="currentColor" />
  <path d="M1.67005 9.81002L2.01514 11.0979C2.41797 12.6013 2.61938 13.353 3.076 13.8405C3.43654 14.2255 3.90313 14.4949 4.41677 14.6146C5.06728 14.7663 5.81898 14.5649 7.32237 14.162C8.82575 13.7592 9.57745 13.5578 10.065 13.1012C10.1054 13.0633 10.1446 13.0242 10.1825 12.984C9.9597 12.9653 9.73498 12.9295 9.50661 12.8841C9.04254 12.7918 8.49111 12.644 7.83899 12.4693L7.76778 12.4502L7.75129 12.4458C7.04171 12.2557 6.44887 12.0965 5.9755 11.9255C5.47771 11.7457 5.02539 11.524 4.64131 11.1643C4.11201 10.6685 3.74161 10.027 3.57693 9.3207C3.45744 8.80821 3.4916 8.30565 3.58477 7.78463C3.67405 7.28535 3.83439 6.687 4.02649 5.97011L4.0265 5.97009L4.38276 4.64051L4.39529 4.59375C3.11493 4.93866 2.441 5.14272 1.99157 5.56365C1.60663 5.92419 1.33724 6.39078 1.21748 6.90442C1.0658 7.55494 1.26721 8.30663 1.67005 9.81002Z" fill="currentColor" />
</svg>