<svg width="1em" height="1em" viewBox="0 0 18 18" fill="none" xmlns="http://www.w3.org/2000/svg">
<path fill-rule="evenodd" clip-rule="evenodd" d="M9 15.75C12.7279 15.75 15.75 12.7279 15.75 9C15.75 5.27208 12.7279 2.25 9 2.25C5.27208 2.25 2.25 5.27208 2.25 9C2.25 12.7279 5.27208 15.75 9 15.75ZM12.5762 7.23014C12.8413 6.91193 12.7983 6.43901 12.4801 6.17383C12.1619 5.90866 11.689 5.95165 11.4238 6.26986L8.72536 9.50802C8.46532 9.82007 8.31913 9.99282 8.20242 10.099L8.19796 10.103L8.19315 10.0994C8.06731 10.0042 7.90608 9.84543 7.61886 9.55821L6.53032 8.46967C6.23743 8.17678 5.76255 8.17678 5.46966 8.46967C5.17677 8.76256 5.17677 9.23744 5.46966 9.53033L6.5582 10.6189L6.58882 10.6495C6.83369 10.8945 7.06926 11.1301 7.28844 11.2959C7.53397 11.4815 7.8555 11.6561 8.26756 11.6374C8.67962 11.6187 8.98403 11.4157 9.21174 11.2086C9.41502 11.0237 9.62828 10.7677 9.84997 10.5016L9.87769 10.4683L12.5762 7.23014Z" fill="currentColor"/>
</svg>
