<svg width="1em" height="1em" viewBox="0 0 18 18" fill="none" xmlns="http://www.w3.org/2000/svg">
<path fill-rule="evenodd" clip-rule="evenodd" d="M15.75 9C15.75 12.7279 12.7279 15.75 9 15.75C5.27208 15.75 2.25 12.7279 2.25 9C2.25 5.27208 5.27208 2.25 9 2.25C12.7279 2.25 15.75 5.27208 15.75 9ZM5.46967 12.5303C5.17678 12.2374 5.17678 11.7626 5.46967 11.4697L7.93934 9L5.46967 6.53033C5.17678 6.23744 5.17678 5.76256 5.46967 5.46967C5.76256 5.17678 6.23744 5.17678 6.53033 5.46967L9 7.93934L11.4697 5.46967C11.7626 5.17678 12.2374 5.17678 12.5303 5.46967C12.8232 5.76256 12.8232 6.23744 12.5303 6.53033L10.0607 9L12.5303 11.4697C12.8232 11.7626 12.8232 12.2374 12.5303 12.5303C12.2374 12.8232 11.7626 12.8232 11.4697 12.5303L9 10.0607L6.53033 12.5303C6.23744 12.8232 5.76256 12.8232 5.46967 12.5303Z" fill="currentColor"/>
</svg>
