<svg width="1em" height="1em" viewBox="0 0 24 24" fill="none" xmlns="http://www.w3.org/2000/svg">
<path d="M8.3999 3.60001C7.73716 3.60001 7.1999 4.13726 7.1999 4.80001C7.1999 5.46275 7.73716 6.00001 8.3999 6.00001H15.5999C16.2626 6.00001 16.7999 5.46275 16.7999 4.80001C16.7999 4.13726 16.2626 3.60001 15.5999 3.60001H8.3999Z" fill="currentColor"/>
<path d="M4.7999 8.40001C4.7999 7.73726 5.33716 7.20001 5.9999 7.20001H17.9999C18.6626 7.20001 19.1999 7.73726 19.1999 8.40001C19.1999 9.06275 18.6626 9.60001 17.9999 9.60001H5.9999C5.33716 9.60001 4.7999 9.06275 4.7999 8.40001Z" fill="currentColor"/>
<path d="M2.3999 13.2C2.3999 11.8745 3.47442 10.8 4.7999 10.8H19.1999C20.5254 10.8 21.5999 11.8745 21.5999 13.2V18C21.5999 19.3255 20.5254 20.4 19.1999 20.4H4.7999C3.47442 20.4 2.3999 19.3255 2.3999 18V13.2Z" fill="currentColor"/>
</svg>
