<svg width="1em" height="1em" viewBox="0 0 18 18" fill="none" xmlns="http://www.w3.org/2000/svg">
<path fill-rule="evenodd" clip-rule="evenodd" d="M15.5148 9C15.5148 8.62851 15.3177 8.3999 14.9236 7.94266C13.7771 6.61246 11.5543 4.5 9.00007 4.5C6.44587 4.5 4.22302 6.61246 3.0765 7.94266C2.6824 8.3999 2.48535 8.62852 2.48535 9C2.48535 9.37149 2.6824 9.6001 3.0765 10.0573C4.22302 11.3875 6.44587 13.5 9.00007 13.5C11.5543 13.5 13.7771 11.3875 14.9236 10.0573C15.3177 9.6001 15.5148 9.37148 15.5148 9ZM9.00007 11.25C10.2427 11.25 11.2501 10.2426 11.2501 9C11.2501 7.75736 10.2427 6.75 9.00007 6.75C7.75743 6.75 6.75007 7.75736 6.75007 9C6.75007 10.2426 7.75743 11.25 9.00007 11.25Z" fill="currentColor"/>
</svg>
