<svg width="1em" height="1em" viewBox="0 0 20 20" fill="none" xmlns="http://www.w3.org/2000/svg">
<path fill-rule="evenodd" clip-rule="evenodd" d="M3.33301 5.66675C3.33301 4.26662 3.33301 3.56655 3.60549 3.03177C3.84517 2.56137 4.22763 2.17892 4.69803 1.93923C5.23281 1.66675 5.93288 1.66675 7.33301 1.66675H10.1663C10.3997 1.66675 10.5164 1.66675 10.6055 1.71216C10.6839 1.75211 10.7476 1.81585 10.7876 1.89425C10.833 1.98338 10.833 2.10006 10.833 2.33341V4.16675C10.833 6.0077 12.3254 7.50008 14.1663 7.50008H15.9997C16.233 7.50008 16.3497 7.50008 16.4388 7.5455C16.5172 7.58544 16.581 7.64918 16.6209 7.72759C16.6663 7.81672 16.6663 7.93339 16.6663 8.16675V14.3334C16.6663 15.7335 16.6663 16.4336 16.3939 16.9684C16.1542 17.4388 15.7717 17.8212 15.3013 18.0609C14.7665 18.3334 14.0665 18.3334 12.6663 18.3334H7.33301C5.93288 18.3334 5.23281 18.3334 4.69803 18.0609C4.22763 17.8212 3.84517 17.4388 3.60549 16.9684C3.33301 16.4336 3.33301 15.7335 3.33301 14.3334V5.66675ZM9.99967 9.16675C10.4599 9.16675 10.833 9.53984 10.833 10.0001V10.8334H11.6663C12.1266 10.8334 12.4997 11.2065 12.4997 11.6667C12.4997 12.127 12.1266 12.5001 11.6663 12.5001H10.833V13.3334C10.833 13.7937 10.4599 14.1667 9.99967 14.1667C9.53944 14.1667 9.16634 13.7937 9.16634 13.3334V12.5001H8.33301C7.87277 12.5001 7.49967 12.127 7.49967 11.6667C7.49967 11.2065 7.87277 10.8334 8.33301 10.8334H9.16634V10.0001C9.16634 9.53984 9.53944 9.16675 9.99967 9.16675Z" fill="currentColor"/>
<path d="M12.5 2.256C12.5 1.93057 12.7638 1.66675 13.0893 1.66675C13.2455 1.66675 13.3954 1.72883 13.5059 1.83934L16.4941 4.82749C16.6046 4.938 16.6667 5.08788 16.6667 5.24416C16.6667 5.5696 16.4028 5.83342 16.0774 5.83342H14.1667C13.2462 5.83342 12.5 5.08722 12.5 4.16675V2.256Z" fill="currentColor"/>
</svg>
