<svg width="1em" height="1em" viewBox="0 0 17 16" fill="none" xmlns="http://www.w3.org/2000/svg">
  <path fill-rule="evenodd" clip-rule="evenodd" d="M8.5 7.83331C8.77614 7.83331 9 8.05717 9 8.33331V8.83331H9.5C9.77614 8.83331 10 9.05717 10 9.33331C10 9.60946 9.77614 9.83331 9.5 9.83331H9V10.3333C9 10.6095 8.77614 10.8333 8.5 10.8333C8.22386 10.8333 8 10.6095 8 10.3333V9.83331H7.5C7.22386 9.83331 7 9.60946 7 9.33331C7 9.05717 7.22386 8.83331 7.5 8.83331H8V8.33331C8 8.05717 8.22386 7.83331 8.5 7.83331Z" fill="currentColor" />
  <path fill-rule="evenodd" clip-rule="evenodd" d="M8.46501 0.833314C7.86603 0.833295 7.36654 0.833279 6.97002 0.886589C6.55149 0.942859 6.17363 1.06664 5.86998 1.37029C5.56633 1.67393 5.44255 2.0518 5.38628 2.47033C5.33297 2.86685 5.33299 3.36633 5.33301 3.96532L5.33301 4.01713C3.98556 4.06121 3.17642 4.21867 2.61406 4.78103C1.83301 5.56208 1.83301 6.81916 1.83301 9.33331C1.83301 11.8475 1.83301 13.1046 2.61406 13.8856C3.3951 14.6666 4.65218 14.6666 7.16633 14.6666H9.83301C12.3472 14.6666 13.6042 14.6666 14.3853 13.8856C15.1663 13.1046 15.1663 11.8475 15.1663 9.33331C15.1663 6.81916 15.1663 5.56208 14.3853 4.78103C13.8229 4.21867 13.0138 4.06121 11.6663 4.01713L11.6663 3.96532C11.6664 3.36634 11.6664 2.86685 11.6131 2.47033C11.5568 2.0518 11.433 1.67393 11.1294 1.37029C10.8257 1.06664 10.4479 0.942859 10.0293 0.886589C9.63281 0.833279 9.13334 0.833295 8.53436 0.833314H8.46501ZM10.6663 4.00124V3.99998C10.6663 3.35731 10.6653 2.9256 10.622 2.60358C10.5806 2.29594 10.5091 2.16427 10.4223 2.07739C10.3354 1.99052 10.2037 1.91903 9.89608 1.87767C9.57406 1.83438 9.14235 1.83332 8.49968 1.83332C7.857 1.83332 7.42529 1.83438 7.10327 1.87767C6.79563 1.91903 6.66396 1.99052 6.57709 2.07739C6.49021 2.16427 6.41873 2.29594 6.37737 2.60358C6.33407 2.9256 6.33301 3.35731 6.33301 3.99998V4.00124C6.59436 3.99998 6.87172 3.99998 7.16634 3.99998H9.83301C10.1276 3.99998 10.405 3.99998 10.6663 4.00124ZM11.1663 9.33331C11.1663 10.8061 9.97243 12 8.49968 12C7.02692 12 5.83301 10.8061 5.83301 9.33331C5.83301 7.86056 7.02692 6.66665 8.49968 6.66665C9.97243 6.66665 11.1663 7.86056 11.1663 9.33331Z" fill="currentColor" />
</svg>