<svg width="1em" height="1em" viewBox="0 0 24 16" fill="none" xmlns="http://www.w3.org/2000/svg">
<path d="M23.1 13.4737C23.5971 13.4737 24 14.0392 24 14.7368C24 15.4345 23.5971 16 23.1 16H0.9C0.402944 16 0 15.4345 0 14.7368C0 14.0392 0.402944 13.4737 0.9 13.4737H23.1ZM23.1 6.73684C23.5971 6.73684 24 7.30238 24 8C24 8.69762 23.5971 9.26316 23.1 9.26316H0.9C0.402944 9.26316 0 8.69762 0 8C0 7.30238 0.402944 6.73684 0.9 6.73684H23.1ZM23.1 0C23.5971 0 24 0.565535 24 1.26316C24 1.96078 23.5971 2.52632 23.1 2.52632H0.9C0.402944 2.52632 0 1.96078 0 1.26316C0 0.565535 0.402944 0 0.9 0H23.1Z" fill="currentColor"/>
</svg>
