<svg width="1em" height="1em" viewBox="0 0 24 24" fill="none" xmlns="http://www.w3.org/2000/svg">

<path d="M23.5956 5.66004C23.1079 5.24193 22.3736 5.29833 21.9556 5.78598L19.6151 8.5158C19.6151 8.5158 18.4588 9.31209 15.7386 9.60051C13.0185 9.88892 11.8751 9.37096 10.8783 11.7602C10.368 12.9834 9.69061 14.3998 7.98516 15.6258L5.84049 16.1658L1.5022 15.5657C0.962897 15.4905 0.434675 15.8181 0.274549 16.356C0.0978887 16.9492 0.435613 17.5733 1.0288 17.7499L5.60889 19.1138C5.71484 19.145 5.83123 19.1581 5.94785 19.1471L6.17294 19.126L8.84366 18.8758L6.88345 20.6947L1.24768 20.0451C0.689141 19.9801 0.158925 20.3438 0.0291125 20.9045C-0.110375 21.5068 0.264816 22.108 0.867032 22.2475L7.13756 23.6994C7.48866 23.7789 7.87628 23.7137 8.19037 23.4855L8.32992 23.3841L12.1031 20.6419C14.2397 19.0066 15.9744 16.4109 16.8237 13.7482C17.002 13.1889 17.1353 12.6595 17.2353 12.1779L20.8396 10.8971C21.0503 10.8225 21.2416 10.6861 21.3838 10.4922L23.7763 7.23098C24.1305 6.74545 24.0596 6.05786 23.5956 5.66004Z" fill="currentColor"/>
<path d="M12.3736 9.57146C14.0652 9.57146 15.4366 8.2001 15.4366 6.50843C15.4366 4.81677 14.0652 3.4454 12.3736 3.4454C10.6819 3.4454 9.31055 4.81677 9.31055 6.50843C9.31055 8.2001 10.6819 9.57146 12.3736 9.57146Z" fill="currentColor"/>
<path d="M19.6444 6.36943C19.7686 6.46242 19.9154 6.50845 20.0619 6.50845C20.2275 6.50845 20.3927 6.44958 20.5239 6.33314C20.5872 6.27702 22.073 4.94038 22.0448 3.30018C22.0161 1.63982 20.4622 0.456734 20.3961 0.407189C20.1315 0.208952 19.7639 0.224079 19.5166 0.443483C19.4533 0.499594 17.9676 1.83618 17.9958 3.47638C18.0244 5.13685 19.5784 6.31989 19.6444 6.36943Z" fill="currentColor"/>

</svg>
