<svg width="1em" height="1em" viewBox="0 0 16 16" fill="none" xmlns="http://www.w3.org/2000/svg">
  <path fill-rule="evenodd" clip-rule="evenodd" d="M5.12584 2.88525C5.08906 2.89071 5.026 2.90983 4.98134 2.92621C4.84734 2.98081 1.25573 5.18691 1.17691 5.26063C1.00613 5.43264 0.948332 5.76028 1.0508 5.99235C1.10597 6.12068 1.25048 6.26266 1.3871 6.31999C1.50533 6.37187 1.71027 6.37187 1.8285 6.32272C1.87579 6.30088 2.664 5.8258 3.5757 5.26882C4.48739 4.7091 5.24145 4.26133 5.24933 4.26952C5.25984 4.28045 5.3229 5.24698 5.39121 6.42374C5.48842 8.09197 5.52258 8.58342 5.55673 8.66533C5.66708 8.94383 5.88515 9.09945 6.22671 9.15133L6.43953 9.18136V10.2817V11.3847L5.73276 12.5915C5.34391 13.2577 4.99973 13.8557 4.96557 13.9239C4.88413 14.0905 4.8815 14.3772 4.95769 14.5546C5.026 14.7048 5.16525 14.8577 5.31764 14.9396C5.40434 14.9887 5.47003 15.0024 5.62504 14.9997C5.85888 14.9969 6.01127 14.9341 6.15577 14.7758C6.26875 14.6556 7.79262 12.0591 7.86356 11.868C7.9056 11.7506 7.91085 11.6386 7.91085 10.552V9.36156L8.03696 9.37795C8.08137 9.38505 8.19349 9.39907 8.32499 9.41551C8.39579 9.42436 8.47219 9.43392 8.54667 9.44347C8.75949 9.47078 8.94866 9.50354 8.96705 9.51992C9.30598 9.79569 12.2092 11.9526 12.2933 11.9909C12.6427 12.1519 13.092 11.9663 13.2444 11.595C13.3653 11.3137 13.2996 10.9588 13.092 10.7486C12.9449 10.6011 9.62389 8.10835 9.49778 8.05101C9.42421 8.01552 9.14046 7.9691 8.63338 7.90358C8.21563 7.8517 7.87144 7.80528 7.86881 7.79982C7.8583 7.7889 8.6544 5.88041 8.67804 5.85311C8.68592 5.84492 8.70694 5.90498 8.72533 5.98416C8.74373 6.06334 8.78051 6.17255 8.80941 6.22443C8.88298 6.36368 10.3543 7.80528 10.5172 7.89538C10.7405 8.02371 10.9954 7.99368 11.1951 7.81621C11.3396 7.68788 11.4026 7.54044 11.4052 7.33294C11.4052 7.06264 11.3632 7.00257 10.6748 6.32545C10.3333 5.98689 10.0206 5.67564 9.98121 5.63468C9.92078 5.56642 9.89451 5.47359 9.79204 4.9876C9.71848 4.6272 9.65279 4.3842 9.61601 4.32413C9.54507 4.204 9.38218 4.0784 9.2692 4.05383C9.15097 4.02653 5.55673 2.98355 5.42799 2.93713C5.28874 2.88798 5.20729 2.8716 5.12584 2.88525ZM7.75238 1.04832C7.5109 1.11644 7.36142 1.20159 7.18894 1.37188C6.78649 1.76922 6.7175 2.39929 7.02509 2.87327C7.15732 3.07762 7.33268 3.22804 7.56265 3.33589C7.74088 3.4182 7.7725 3.42387 8.07146 3.42387C8.37905 3.42387 8.39342 3.42104 8.60327 3.31886C9.66976 2.79948 9.45417 1.24416 8.28706 1.02562C8.07721 0.985885 7.95648 0.991561 7.75238 1.04832ZM12.4861 7.76748C12.7093 7.35285 13.145 7.06463 13.6524 7.00395C13.7427 6.99131 13.8304 6.98625 13.8464 6.98878C13.8915 6.99637 14.0642 7.3478 14.0987 7.50455C14.1519 7.73967 14.1227 8.11386 14.035 8.32876C13.9022 8.65996 13.6046 8.96588 13.2672 9.11504C13.0998 9.18836 12.781 9.25915 12.6641 9.24651C12.5844 9.23893 12.5658 9.22123 12.4861 9.06701C12.2683 8.6549 12.2709 8.17706 12.4861 7.76748Z" fill="currentColor" />
</svg>