<svg width="1em" height="1em" viewBox="0 0 16 16" fill="none" xmlns="http://www.w3.org/2000/svg">
  <path fill-rule="evenodd" clip-rule="evenodd" d="M4.84173 2.445C5.07778 2.20979 5.36291 2.06162 5.68311 2.00987C5.821 1.9887 6.1038 2.00281 6.25805 2.04045C6.41698 2.07808 6.72314 2.23332 6.85169 2.34151C7.10644 2.55555 7.27238 2.82368 7.35651 3.15062C7.59491 4.09614 6.87272 5.02285 5.89579 5.02285C5.33487 5.02285 4.82069 4.70297 4.56361 4.19728C4.44675 3.96913 4.40234 3.77862 4.40234 3.50578C4.40234 3.08946 4.54725 2.74371 4.84173 2.445ZM7.09546 4.67638C7.25029 4.55037 7.5013 4.43164 7.70773 4.38559C8.03381 4.3129 8.36458 4.34924 8.62731 4.48737C8.82671 4.58915 8.87363 4.63519 9.33577 5.17799C10.0067 5.97039 10.809 6.82095 11.7121 7.70301C12.3995 8.37424 12.5168 8.55356 12.5449 8.97763C12.566 9.28053 12.4863 9.55194 12.2822 9.87908C12.1062 10.1626 11.7285 10.7926 11.6253 10.972C11.3602 11.4372 11.1491 11.9606 11.2101 11.9994C11.3039 12.06 12.3314 12.203 12.9507 12.2417C13.3871 12.2708 13.4528 12.2854 13.631 12.4114C13.8914 12.5907 14.0416 12.942 13.99 13.2522C13.9548 13.4582 13.8797 13.6157 13.7483 13.7466C13.5161 13.9792 13.3331 14.0252 12.7513 13.9889C11.8529 13.9332 10.9896 13.7853 10.2061 13.5479C9.73691 13.4073 9.58208 13.2958 9.44602 12.9978C9.38034 12.8524 9.3733 12.8185 9.37565 12.6076C9.38503 11.9728 9.60319 11.161 9.95977 10.4582L10.1076 10.1626L9.69468 9.76276C9.29823 9.38231 8.36927 8.42513 7.9564 7.97199C7.85083 7.85325 7.757 7.76116 7.75231 7.76601C7.74761 7.77328 7.69601 7.89687 7.63736 8.04226C7.23856 9.02609 6.72716 9.68279 5.94833 10.2062C5.56361 10.4655 4.73318 10.8581 4.24993 11.0083C3.83002 11.1416 3.49456 10.955 3.37023 10.5237C3.28812 10.2377 3.34912 9.92996 3.5274 9.72883C3.64 9.60283 3.76199 9.5374 4.10683 9.40897C4.7496 9.17149 5.19531 8.90736 5.53781 8.56083C5.96241 8.13192 6.20403 7.65939 6.55357 6.57135L6.65913 6.24179L6.62394 6.08671C6.57234 5.85408 6.59345 5.49544 6.67321 5.27735C6.74828 5.07379 6.93125 4.81208 7.09546 4.67638ZM3.13322 7.79018C3.00889 7.83622 2.81887 7.98162 2.71331 8.11005C2.11042 8.85156 1.85707 10.0923 2.07992 11.2215C2.20191 11.8443 2.5186 12.5034 2.84702 12.816C3.17075 13.1262 3.40768 13.1213 3.74783 12.7942C3.93316 12.6149 4.0786 12.4065 4.22404 12.1035C4.33665 11.8758 4.46801 11.5195 4.44925 11.5002C4.44456 11.4953 4.37418 11.5074 4.29442 11.5292C4.12317 11.5753 3.84636 11.5801 3.70326 11.5414C3.22001 11.4057 2.87752 10.9428 2.84468 10.383C2.82356 10.0026 2.94086 9.6585 3.17544 9.40648C3.33965 9.22959 3.43349 9.17385 3.87686 8.99938C4.08095 8.91941 4.26158 8.84672 4.28035 8.8346C4.31319 8.81764 4.3085 8.7934 4.2475 8.66255C4.07156 8.27968 3.80179 7.94527 3.56955 7.82653C3.43114 7.75626 3.26459 7.74172 3.13322 7.79018ZM7.27848 9.73612C7.44738 9.28297 7.77346 8.33548 7.80396 8.20948L7.82038 8.1392L7.8931 8.23371C8.12534 8.53661 8.42561 8.87587 8.82206 9.28539L9.27247 9.74581L8.86194 10.8072C8.30128 12.2539 7.94236 13.1262 7.84149 13.2813C7.67493 13.543 7.37935 13.6666 7.07908 13.6036C6.54423 13.4897 6.15247 12.9324 6.23692 12.4065C6.25334 12.2999 6.35187 12.0285 6.54188 11.5729C6.88672 10.7515 7.06501 10.3056 7.27848 9.73612Z" fill="currentColor" />
</svg>