<svg width="1em" height="1em" viewBox="0 0 16 16" fill="none" xmlns="http://www.w3.org/2000/svg">
  <path fill-rule="evenodd" clip-rule="evenodd" d="M12.539 2.42829C12.4679 2.4509 12.3194 2.5155 12.2128 2.57041C11.9285 2.71576 11.5571 2.86434 10.601 3.22287C10.1391 3.39728 9.62233 3.59431 9.45437 3.66537C9.23473 3.75904 9.08292 3.80103 8.91173 3.81395C8.40462 3.85594 7.99765 4.17894 7.89106 4.62468C7.86199 4.74419 7.19661 5.42571 6.85423 5.68734C6.71211 5.79393 6.44725 5.9522 6.26961 6.03618C5.91108 6.20737 5.7948 6.31396 5.73989 6.52391C5.66237 6.80169 5.83679 7.16022 6.11134 7.29265C6.32775 7.396 6.528 7.37016 6.89622 7.18606C7.21922 7.02456 7.48731 6.85014 7.77478 6.61112C7.90075 6.50453 7.97504 6.46577 7.98473 6.49161C8.00088 6.54652 8.27866 8.32301 8.33034 8.70415C8.34972 8.86888 8.36264 9.00777 8.35295 9.01423C8.34649 9.02069 7.26444 9.41474 5.94984 9.89278C4.63523 10.3676 3.50797 10.7843 3.44014 10.8166C3.29479 10.8908 3.14298 11.0717 3.09453 11.23C2.98471 11.6047 3.17205 12.002 3.52735 12.1376C3.77606 12.2313 3.85681 12.2087 5.88847 11.4722C6.95113 11.0879 7.84261 10.7649 7.86522 10.7552C7.89429 10.7455 7.89752 10.7616 7.87168 10.8295C7.85553 10.8747 7.83938 10.9845 7.83938 11.0717C7.83938 11.2978 8.72116 14.5375 8.82452 14.6958C8.86974 14.7604 8.9731 14.8573 9.05708 14.9057C9.26057 15.0252 9.56096 15.0317 9.77091 14.9219C10.0164 14.7927 10.194 14.46 10.152 14.2048C10.1424 14.1434 9.96794 13.4748 9.76122 12.7222C9.55773 11.9664 9.38977 11.3366 9.38977 11.3172C9.38977 11.2978 9.70308 10.9684 10.0874 10.5872C10.4686 10.2061 10.8207 9.82818 10.8691 9.74743C10.9886 9.5504 10.9918 9.24356 10.8788 9.05299C10.8207 8.95609 10.7851 8.79782 10.727 8.39084L10.7014 8.22377L10.7013 8.22347C10.6606 7.95737 10.614 7.65341 10.5849 7.48644C10.4686 6.79523 10.362 6.02003 10.3297 5.5646L10.3276 5.53827C10.3087 5.29571 10.2874 5.02134 10.278 4.91538L10.2619 4.71835L10.9466 4.46641C12.3775 3.94315 13.072 3.6363 13.2399 3.45865C13.4531 3.23256 13.4434 2.91602 13.2141 2.64793C13.0235 2.42506 12.7877 2.34754 12.539 2.42829ZM8.01694 1.04264C7.38386 1.21383 6.97688 1.8469 7.09316 2.47675C7.19652 3.02585 7.58735 3.41345 8.14614 3.51681C8.49498 3.58141 8.92779 3.44898 9.20557 3.19381C9.37999 3.03231 9.5318 2.75453 9.58348 2.50259C9.76436 1.60789 8.89873 0.80362 8.01694 1.04264ZM2.10246 8.15205C1.89807 7.32645 2.00518 6.459 2.37282 5.97821C2.52018 5.78124 2.64972 5.72137 2.82739 5.76425C3.36202 5.89568 4.00868 6.7121 4.24482 7.56039C4.30914 7.78806 4.34338 8.18975 4.32625 8.48309C4.28353 9.14553 3.94805 9.92105 3.69496 9.94781C3.52237 9.96541 3.14104 9.7119 2.77764 9.34734C2.53416 9.10003 2.18768 8.487 2.10246 8.15205Z" fill="currentColor" />
</svg>