<svg width="1em" height="1em" viewBox="0 0 20 19" fill="none" xmlns="http://www.w3.org/2000/svg">
<path d="M13.4444 2C13.8134 1.99998 14.1684 2.14434 14.4365 2.40349C14.7047 2.66263 14.8658 3.01691 14.8867 3.39364L14.8889 3.47727V4.72727H15.6667C16.9556 4.72727 18 5.79545 18 7.11364V13.25C18 13.6418 17.8478 14.0175 17.5769 14.2946C17.306 14.5716 16.9386 14.7273 16.5556 14.7273H14.8889V15.5227C14.8889 15.9145 14.7367 16.2903 14.4658 16.5673C14.1949 16.8444 13.8275 17 13.4444 17H6.55556C6.17247 17 5.80507 16.8444 5.53418 16.5673C5.26329 16.2903 5.11111 15.9145 5.11111 15.5227V14.7273H3.44444C3.06135 14.7273 2.69395 14.5716 2.42307 14.2946C2.15218 14.0175 2 13.6418 2 13.25V7.11364C2 5.79545 3.04444 4.72727 4.33333 4.72727H5.11111V3.47727C5.11109 3.09994 5.25225 2.7369 5.50563 2.46262C5.75902 2.18835 6.10542 2.02364 6.47378 2.00227L6.55556 2H13.4444ZM6.22222 15.5227C6.22222 15.7109 6.37156 15.8636 6.55556 15.8636H13.4444C13.5329 15.8636 13.6176 15.8277 13.6801 15.7638C13.7427 15.6999 13.7778 15.6131 13.7778 15.5227V11.6591C13.7778 11.5687 13.7427 11.482 13.6801 11.418C13.6176 11.3541 13.5329 11.3182 13.4444 11.3182H6.55556C6.46715 11.3182 6.38237 11.3541 6.31985 11.418C6.25734 11.482 6.22222 11.5687 6.22222 11.6591V15.5227ZM13.4444 3.13636H6.55556C6.47501 3.13637 6.39718 3.1662 6.33648 3.22035C6.27577 3.2745 6.23629 3.34929 6.22533 3.43091L6.22222 3.47727V4.72727H13.7778V3.47727C13.7778 3.39489 13.7486 3.3153 13.6957 3.25321C13.6427 3.19113 13.5696 3.15075 13.4898 3.13955L13.4444 3.13636Z" fill="currentColor"/>
</svg>
