<svg width="1em" height="1em" viewBox="0 0 14 14" fill="none" xmlns="http://www.w3.org/2000/svg">
<path fill-rule="evenodd" clip-rule="evenodd" d="M6.29961 1.39999C6.03447 1.39999 5.79209 1.5498 5.67351 1.78694L5.16699 2.79999H2.79961C2.41301 2.79999 2.09961 3.11339 2.09961 3.49999C2.09961 3.88659 2.41301 4.19999 2.79961 4.19999L2.79961 11.2C2.79961 11.9732 3.42641 12.6 4.19961 12.6H9.79961C10.5728 12.6 11.1996 11.9732 11.1996 11.2V4.19999C11.5862 4.19999 11.8996 3.88659 11.8996 3.49999C11.8996 3.11339 11.5862 2.79999 11.1996 2.79999H8.83223L8.32571 1.78694C8.20713 1.5498 7.96475 1.39999 7.69961 1.39999H6.29961ZM4.89961 5.59999C4.89961 5.21339 5.21301 4.89999 5.59961 4.89999C5.98621 4.89999 6.29961 5.21339 6.29961 5.59999V9.79999C6.29961 10.1866 5.98621 10.5 5.59961 10.5C5.21301 10.5 4.89961 10.1866 4.89961 9.79999V5.59999ZM8.39961 4.89999C8.01301 4.89999 7.69961 5.21339 7.69961 5.59999V9.79999C7.69961 10.1866 8.01301 10.5 8.39961 10.5C8.78621 10.5 9.09961 10.1866 9.09961 9.79999V5.59999C9.09961 5.21339 8.78621 4.89999 8.39961 4.89999Z" fill="currentColor"/>
</svg>
