<svg width="1em" height="1em" viewBox="0 0 24 24" fill="none" xmlns="http://www.w3.org/2000/svg">
<path d="M15.6 7.20001C15.6 9.18823 13.9882 10.8 12 10.8C10.0117 10.8 8.39995 9.18823 8.39995 7.20001C8.39995 5.21178 10.0117 3.60001 12 3.60001C13.9882 3.60001 15.6 5.21178 15.6 7.20001Z" fill="currentColor"/>
<path d="M21.6 9.60001C21.6 10.9255 20.5254 12 19.1999 12C17.8745 12 16.8 10.9255 16.8 9.60001C16.8 8.27452 17.8745 7.20001 19.1999 7.20001C20.5254 7.20001 21.6 8.27452 21.6 9.60001Z" fill="currentColor"/>
<path d="M16.8 18C16.8 15.349 14.6509 13.2 12 13.2C9.34898 13.2 7.19995 15.349 7.19995 18V21.6H16.8V18Z" fill="currentColor"/>
<path d="M7.19995 9.60001C7.19995 10.9255 6.12543 12 4.79995 12C3.47447 12 2.39995 10.9255 2.39995 9.60001C2.39995 8.27452 3.47447 7.20001 4.79995 7.20001C6.12543 7.20001 7.19995 8.27452 7.19995 9.60001Z" fill="currentColor"/>
<path d="M19.1999 21.6V18C19.1999 16.735 18.8737 15.5462 18.3008 14.5132C18.5882 14.4393 18.8895 14.4 19.1999 14.4C21.1882 14.4 22.7999 16.0118 22.7999 18V21.6H19.1999Z" fill="currentColor"/>
<path d="M5.69907 14.5132C5.12617 15.5462 4.79995 16.735 4.79995 18V21.6H1.19995V18C1.19995 16.0118 2.81173 14.4 4.79995 14.4C5.1104 14.4 5.41167 14.4393 5.69907 14.5132Z" fill="currentColor"/>
</svg>
