<svg width="1em" height="1em" viewBox="0 0 17 16" fill="none" xmlns="http://www.w3.org/2000/svg">
  <path fill-rule="evenodd" clip-rule="evenodd" d="M15.1663 7.99998C15.1663 4.31808 12.1816 1.33331 8.49967 1.33331C4.81778 1.33331 1.83301 4.31808 1.83301 7.99998C1.83301 11.6819 4.81778 14.6666 8.49967 14.6666C12.1816 14.6666 15.1663 11.6819 15.1663 7.99998ZM8.49967 4.16665C8.77582 4.16665 8.99967 4.3905 8.99967 4.66665V8.66665C8.99967 8.94279 8.77582 9.16665 8.49967 9.16665C8.22353 9.16665 7.99967 8.94279 7.99967 8.66665V4.66665C7.99967 4.3905 8.22353 4.16665 8.49967 4.16665ZM8.49967 11.3333C8.86786 11.3333 9.16634 11.0348 9.16634 10.6666C9.16634 10.2985 8.86786 9.99998 8.49967 9.99998C8.13148 9.99998 7.83301 10.2985 7.83301 10.6666C7.83301 11.0348 8.13148 11.3333 8.49967 11.3333Z" fill="currentColor" />
</svg>