<svg width="1em" height="1em" viewBox="0 0 24 24" fill="none" xmlns="http://www.w3.org/2000/svg">
<path id="Vector" d="M22.9064 5.00498H11.1355V6.81421C11.1355 7.26793 10.7677 7.63574 10.3139 7.63574C9.8632 7.63574 9.49663 7.27256 9.49245 6.82183L9.47555 5C6.88189 5.30564 4.64658 7.12897 3.80644 9.58091C3.43348 9.36792 3.01071 9.2456 2.55049 9.2456C1.13955 9.2456 0 10.3894 0 11.8003C0 13.2113 1.14598 14.3551 2.55693 14.3551C3.01714 14.3551 3.44966 14.2327 3.82263 14.0198C4.74493 16.7117 7.29615 18.6476 10.3006 18.6476C14.0658 18.6476 17.1203 15.6085 17.1469 11.8496L23.1336 10.387C23.6882 10.2527 24 9.93292 24 9.15482V5.93869C24 5.36809 23.477 5.00498 22.9064 5.00498Z" fill="currentColor"/>

</svg>
